# xmcd
#
# Track frame offsets:
# 150
# 17277
# 33575
# 45395
# 62130
# 77635
# 98170
# 111762
# 125252
# 138630
# 154825
# 167637
#
# Disc length: 2408 seconds
#
#
# Revision: 0
# Processed by: cddbd v1.5.2PL0 Copyright (c) Steve Scherf et al.
# Submitted via: FreeRIP 2.944 
#
DISCID=9109660c
DTITLE=Variados Coutry - Cowboy Group and Saint-Paul Country
DYEAR=1900
DGENRE=Country
TTITLE0=Listen to the music
TTITLE1=Dream a litle dream of me
TTITLE2=Lodi
TTITLE3=You made it right
TTITLE4=Mr. Tambourine man
TTITLE5=Jambalaya
TTITLE6=The sounds of silence
TTITLE7=Take me home, country roads
TTITLE8=Bus stop
TTITLE9=It never rains in southern California
TTITLE10=I feel fine
TTITLE11=Everybody's talking
EXTD=
EXTT0=
EXTT1=
EXTT2=
EXTT3=
EXTT4=
EXTT5=
EXTT6=
EXTT7=
EXTT8=
EXTT9=
EXTT10=
EXTT11=
PLAYORDER=
